<?xml version="1.0" encoding="UTF-8" standalone="no"?>
<!-- Created with Inkscape (http://www.inkscape.org/) -->

<svg
   width="145.186mm"
   height="70.428207mm"
   viewBox="0 0 145.186 70.428208"
   version="1.1"
   id="svg5"
   inkscape:version="1.2.2 (b0a8486541, 2022-12-01)"
   sodipodi:docname="logo.svg"
   inkscape:export-filename="../Downloads/drawing-1.svg"
   inkscape:export-xdpi="96"
   inkscape:export-ydpi="96"
   xml:space="preserve"
   xmlns:inkscape="http://www.inkscape.org/namespaces/inkscape"
   xmlns:sodipodi="http://sodipodi.sourceforge.net/DTD/sodipodi-0.dtd"
   xmlns="http://www.w3.org/2000/svg"
   xmlns:svg="http://www.w3.org/2000/svg"><sodipodi:namedview
     id="namedview7"
     pagecolor="#ffffff"
     bordercolor="#000000"
     borderopacity="0.25"
     inkscape:showpageshadow="2"
     inkscape:pageopacity="0.0"
     inkscape:pagecheckerboard="0"
     inkscape:deskcolor="#d1d1d1"
     inkscape:document-units="mm"
     showgrid="false"
     inkscape:zoom="1.3986392"
     inkscape:cx="141.56618"
     inkscape:cy="80.077838"
     inkscape:window-width="1461"
     inkscape:window-height="974"
     inkscape:window-x="26"
     inkscape:window-y="23"
     inkscape:window-maximized="0"
     inkscape:current-layer="layer1"><inkscape:grid
       type="xygrid"
       id="grid2216"
       originx="-28.951698"
       originy="-76.000337" /></sodipodi:namedview><defs
     id="defs2" /><g
     inkscape:label="Layer 1"
     inkscape:groupmode="layer"
     id="layer1"
     transform="translate(-28.951711,-76.000345)"><path
       style="fill:#000000;fill-opacity:1;stroke-width:0.264583"
       d="m 101.83367,86.962787 c -3.513432,5.997208 -7.861827,8.514803 -9.679139,14.080833 -18.072038,-9.52068 -29.042994,4.83994 -42.608264,12.3722 l -20.350016,30.67603 c 15.716095,-6.81503 25.55985,-11.12206 36.681942,-13.5298 6.545106,-1.4169 17.235432,-3.6171 23.490265,-2.18234 -0.154666,9.64628 3.312194,10.83573 13.359752,18.04884 9.78034,-7.00569 13.37614,-7.92074 12.89472,-17.9412 5.14335,-1.68122 13.75823,1.0551 19.75056,1.73402 10.96979,1.24286 29.06069,8.49951 38.76423,13.58202 L 156.78276,114.45768 C 144.33463,106.22081 131.08139,92.979164 112.73759,100.93177 110.4097,95.731738 105.3803,92.634164 101.83367,86.962787 Z"
       id="path2006"
       sodipodi:nodetypes="ccccscccscccc"
       inkscape:label="b3" /><path
       style="fill:#012251;fill-opacity:1;stroke-width:0.264583"
       d="M 101.66334,82.337452 C 98.149897,88.33466 93.801502,90.852254 91.98419,96.418284 73.912152,86.897605 62.941196,101.25822 49.375926,108.79048 L 29.02591,139.46651 c 15.716095,-6.81503 25.55985,-11.12206 36.681942,-13.5298 6.545106,-1.4169 17.235432,-3.6171 23.490265,-2.18234 -0.154666,9.64628 3.312194,10.83573 13.359763,18.04884 9.78034,-7.00569 13.37614,-7.92074 12.89472,-17.9412 5.14335,-1.68122 13.75823,1.0551 19.75056,1.73402 10.96979,1.24286 29.06069,8.49951 38.76423,13.58202 l -17.35496,-29.34571 c -12.44813,-8.23687 -25.70137,-21.478506 -44.04517,-13.525906 -2.32789,-5.20003 -7.35729,-8.297605 -10.90392,-13.968982 z"
       id="path410"
       sodipodi:nodetypes="ccccscccscccc"
       inkscape:label="b2" /><path
       style="fill:#4a4a9f;fill-opacity:1;stroke-width:0.264583;opacity:1"
       d="m 101.58915,76.000345 c -3.513452,5.997208 -7.861847,8.514802 -9.679159,14.080832 -18.072038,-9.520679 -29.042994,4.83994 -42.608264,12.372203 l -20.350016,30.67603 c 15.716095,-6.81503 25.55985,-11.12206 36.681942,-13.5298 6.545106,-1.4169 17.235432,-3.6171 23.490265,-2.18234 -0.154666,9.64628 3.312194,10.83573 13.359772,18.04884 9.78034,-7.00569 13.37614,-7.92074 12.89472,-17.9412 5.14335,-1.68122 13.75823,1.0551 19.75056,1.73402 10.96979,1.24286 29.06069,8.49951 38.76423,13.58202 l -17.35496,-29.34571 c -12.44813,-8.236873 -25.70137,-21.478513 -44.04517,-13.525913 -2.32789,-5.20003 -7.35729,-8.297605 -10.90392,-13.968982 z"
       id="path407"
       sodipodi:nodetypes="ccccscccscccc"
       inkscape:label="b1" /><path
       id="path2559"
       style="font-weight:800;font-size:15.0195px;font-family:Montserrat;-inkscape-font-specification:'Montserrat, Ultra-Bold';fill:#000000;fill-opacity:1;stroke-width:0.0782264"
       d="m 82.550691,96.161109 c -0.530979,0 -0.959988,0.14263 -1.286743,0.42736 -0.326757,0.28475 -0.489893,0.63821 -0.489893,1.06041 0,0.4222 0.163136,0.77565 0.489893,1.06039 0.326755,0.28475 0.755764,0.42686 1.286743,0.42686 0.541189,0 0.970198,-0.14211 1.286743,-0.42686 0.326756,-0.29456 0.489892,-0.663 0.489892,-1.10483 0,-0.42221 -0.163136,-0.76585 -0.489892,-1.03095 -0.326757,-0.27492 -0.755765,-0.41238 -1.286743,-0.41238 z m 15.929257,0.91313 v 3.631811 c -0.1477,-0.14569 -0.31079,-0.27128 -0.48989,-0.37671 -0.490134,-0.29456 -1.092863,-0.441841 -1.807641,-0.441841 -0.755624,0 -1.444695,0.166911 -2.067574,0.500741 -0.612668,0.33384 -1.102595,0.80976 -1.470195,1.42834 -0.367601,0.60876 -0.551387,1.3353 -0.551387,2.17971 0,0.85423 0.183786,1.5906 0.551387,2.20917 0.3676,0.60876 0.857527,1.0852 1.470195,1.42886 0.622879,0.33383 1.31195,0.50074 2.067574,0.50074 0.745412,0 1.363499,-0.14727 1.853631,-0.44183 0.21826,-0.13117 0.41221,-0.29384 0.58188,-0.48732 v 0.79685 h 2.772442 V 97.074239 Z m -29.025099,0.61856 v 10.309961 h 5.789828 c 1.439768,0 2.532423,-0.24545 3.277836,-0.73638 0.755623,-0.50076 1.133264,-1.19837 1.133264,-2.09186 0,-0.59895 -0.158361,-1.10432 -0.474907,-1.51671 -0.306334,-0.4222 -0.740117,-0.74155 -1.301729,-0.95756 -0.06516,-0.0262 -0.131694,-0.0502 -0.199471,-0.0733 0.427867,-0.22169 0.765129,-0.50156 1.011307,-0.83973 0.296123,-0.40257 0.444418,-0.86868 0.444418,-1.39889 0,-0.805131 -0.34744,-1.453131 -1.041796,-1.944061 -0.694358,-0.50076 -1.746228,-0.75138 -3.155363,-0.75138 z m 3.0024,2.10633 h 2.083078 c 0.510557,0 0.893489,0.0832 1.148766,0.250121 0.25528,0.1571 0.382924,0.40255 0.382924,0.73639 0,0.33383 -0.127644,0.58445 -0.382924,0.75137 -0.255277,0.16692 -0.638209,0.25012 -1.148766,0.25012 h -2.083078 z m 18.99264,0.0883 c -0.786257,0 -1.455195,0.151921 -2.006596,0.456301 -0.308481,0.1648 -0.568744,0.37763 -0.781348,0.63769 v -0.9617 h -2.771923 v 7.98297 h 2.9099 v -3.66747 c 0,-0.69713 0.183787,-1.19786 0.551387,-1.50224 0.367601,-0.3142 0.84746,-0.47128 1.439705,-0.47128 0.112323,0 0.214541,0.005 0.306441,0.0144 0.102112,0 0.219689,0.01 0.352434,0.0294 z m 15.362371,0 c -0.86795,0 -1.60309,0.117821 -2.20555,0.353471 -0.60246,0.22583 -1.06166,0.54001 -1.37821,0.94257 -0.30633,0.39275 -0.45941,0.84439 -0.45941,1.35496 0,0.45166 0.0864,0.82475 0.25994,1.11931 0.17358,0.29456 0.40344,0.5302 0.68936,0.70693 0.29612,0.16692 0.61763,0.29457 0.9648,0.38293 0.3574,0.0785 0.71012,0.1421 1.0573,0.1912 0.34718,0.049 0.66338,0.0935 0.9493,0.13281 0.29612,0.0393 0.53127,0.0982 0.70487,0.17673 0.18379,0.0687 0.27543,0.18138 0.27543,0.33848 0,0.16692 -0.097,0.29973 -0.29094,0.39792 -0.1838,0.0982 -0.52066,0.14727 -1.01079,0.14727 -0.50035,0 -1.01092,-0.064 -1.53169,-0.19172 -0.52076,-0.13746 -0.97519,-0.31884 -1.36322,-0.54467 l -0.87334,1.91462 c 0.40845,0.23563 0.94497,0.432 1.60869,0.5891 0.67394,0.1571 1.36302,0.23565 2.06758,0.23565 0.89857,0 1.64909,-0.11782 2.25154,-0.35347 0.61267,-0.23565 1.0724,-0.54983 1.37873,-0.94258 0.31654,-0.39275 0.47439,-0.83456 0.47439,-1.3255 0,-0.45166 -0.0864,-0.8201 -0.25994,-1.10484 -0.17359,-0.29457 -0.40874,-0.52503 -0.70487,-0.69194 -0.2859,-0.17675 -0.6074,-0.30955 -0.9648,-0.39792 -0.34717,-0.0883 -0.69462,-0.15191 -1.04179,-0.1912 -0.34718,-0.0491 -0.66868,-0.0935 -0.9648,-0.13281 -0.28591,-0.0491 -0.51577,-0.11265 -0.68936,-0.1912 -0.17359,-0.0884 -0.26045,-0.21135 -0.26045,-0.36845 0,-0.1571 0.0975,-0.28939 0.29145,-0.39739 0.20422,-0.10801 0.55116,-0.16227 1.04129,-0.16227 0.3676,0 0.75582,0.0444 1.16426,0.13281 0.40844,0.0786 0.81681,0.23047 1.22525,0.4563 l 0.87282,-1.89963 c -0.40845,-0.22583 -0.91373,-0.39272 -1.51619,-0.50074 -0.59224,-0.117821 -1.17962,-0.176731 -1.76165,-0.176731 z m 8.86871,0 c -0.86795,0 -1.64916,0.176721 -2.34353,0.530201 -0.69435,0.34365 -1.24094,0.8294 -1.63917,1.45779 -0.38802,0.61858 -0.58188,1.32549 -0.58188,2.12081 0,0.79531 0.19915,1.50739 0.59738,2.13578 0.40844,0.61858 0.97517,1.10949 1.70016,1.47278 0.7352,0.35347 1.59321,0.5302 2.57348,0.5302 0.79647,0 1.48554,-0.108 2.06757,-0.32401 0.58204,-0.22583 1.07196,-0.54983 1.4702,-0.97204 l -1.53169,-1.53169 c -0.28591,0.23565 -0.57669,0.41237 -0.87282,0.5302 -0.28591,0.108 -0.63283,0.16175 -1.04127,0.16175 -0.43908,0 -0.81724,-0.0734 -1.13378,-0.22065 -0.31655,-0.1571 -0.56177,-0.37827 -0.73536,-0.66301 -0.0703,-0.12249 -0.12531,-0.25493 -0.16537,-0.3974 h 6.03168 c 0.0102,-0.108 0.0208,-0.22582 0.031,-0.35347 0.0102,-0.12764 0.015,-0.24081 0.015,-0.33899 0,-0.88369 -0.19914,-1.63451 -0.59738,-2.25309 -0.39824,-0.61857 -0.93424,-1.0852 -1.60818,-1.3994 -0.67392,-0.32402 -1.41914,-0.485761 -2.23603,-0.485761 z m 19.09961,0 c -0.86794,0 -1.64865,0.176721 -2.34301,0.530201 -0.69435,0.34365 -1.24095,0.8294 -1.63917,1.45779 -0.38803,0.61858 -0.58188,1.32549 -0.58188,2.12081 0,0.79531 0.19914,1.50739 0.59738,2.13578 0.40844,0.61858 0.97516,1.10949 1.70015,1.47278 0.7352,0.35347 1.5927,0.5302 2.57297,0.5302 0.79647,0 1.48606,-0.108 2.06809,-0.32401 0.58204,-0.22583 1.07196,-0.54983 1.4702,-0.97204 l -1.53169,-1.53169 c -0.28591,0.23565 -0.57669,0.41237 -0.87282,0.5302 -0.28591,0.108 -0.63335,0.16175 -1.04179,0.16175 -0.43908,0 -0.81672,-0.0734 -1.13327,-0.22065 -0.31654,-0.1571 -0.56176,-0.37827 -0.73535,-0.66301 -0.0703,-0.12249 -0.12532,-0.25493 -0.16537,-0.3974 h 6.03167 c 0.0102,-0.108 0.0203,-0.22582 0.0305,-0.35347 0.0102,-0.12764 0.0155,-0.24081 0.0155,-0.33899 0,-0.88369 -0.19914,-1.63451 -0.59737,-2.25309 -0.39824,-0.61857 -0.93424,-1.0852 -1.60817,-1.3994 -0.67393,-0.32402 -1.41967,-0.485761 -2.23656,-0.485761 z m -53.685097,0.132291 v 7.98297 h 2.910416 v -7.98297 z m 39.272017,0 3.55689,8.08581 c -0.11302,0.20546 -0.24138,0.36311 -0.38602,0.47129 -0.18379,0.13746 -0.4338,0.20619 -0.75034,0.20619 -0.22465,0 -0.45451,-0.0439 -0.68936,-0.13229 -0.22465,-0.0785 -0.4238,-0.19171 -0.59739,-0.339 l -1.01078,1.95905 c 0.2757,0.21602 0.63269,0.38757 1.07177,0.51522 0.44929,0.13746 0.89366,0.20619 1.33273,0.20619 0.55141,0 1.05191,-0.0786 1.5012,-0.23565 0.45949,-0.15709 0.87315,-0.432 1.24075,-0.82475 0.37781,-0.38293 0.70938,-0.91776 0.99529,-1.60508 l 3.58428,-8.30698 h -2.77244 l -2.05156,4.87774 -2.03812,-4.87774 z m -4.67102,1.8557 c 0.34717,0 0.64802,0.0739 0.90329,0.22118 0.2655,0.14728 0.46993,0.35346 0.61289,0.61856 0.0919,0.15904 0.15397,0.33583 0.18707,0.5302 h -3.39669 c 0.0347,-0.18858 0.0931,-0.36072 0.17673,-0.51572 0.14295,-0.27492 0.34209,-0.48576 0.59738,-0.63304 0.26548,-0.14728 0.57214,-0.22118 0.91933,-0.22118 z m 19.0996,0 c 0.34717,0 0.64854,0.0739 0.90383,0.22118 0.26548,0.14728 0.46991,0.35346 0.61288,0.61856 0.0919,0.15904 0.15398,0.33583 0.18707,0.5302 h -3.39721 c 0.0347,-0.18858 0.0936,-0.36072 0.17725,-0.51572 0.14295,-0.27492 0.3421,-0.48576 0.59738,-0.63304 0.26548,-0.14728 0.57162,-0.22118 0.9188,-0.22118 z m -38.000781,0.23565 c 0.326756,0 0.618054,0.0739 0.873332,0.22117 0.265489,0.14728 0.474697,0.36328 0.627867,0.64803 0.15317,0.27492 0.22944,0.61338 0.22944,1.01596 0,0.40256 -0.0763,0.75137 -0.22944,1.04593 -0.15317,0.28474 -0.362378,0.50074 -0.627867,0.64802 -0.255278,0.14727 -0.546576,0.22066 -0.873332,0.22066 -0.336967,0 -0.638331,-0.0733 -0.903821,-0.22066 -0.255278,-0.14728 -0.459199,-0.36328 -0.612365,-0.64802 -0.153167,-0.29456 -0.22996,-0.64337 -0.22996,-1.04593 0,-0.40258 0.07679,-0.74104 0.22996,-1.01596 0.153166,-0.28475 0.357087,-0.50075 0.612365,-0.64803 0.26549,-0.14728 0.566854,-0.22117 0.903821,-0.22117 z m -24.33805,1.69395 h 2.542481 c 0.520767,0 0.913767,0.0884 1.179256,0.2651 0.275701,0.16692 0.413412,0.42685 0.413412,0.78031 0,0.35348 -0.137711,0.61857 -0.413412,0.7953 -0.265489,0.16692 -0.658489,0.25063 -1.179256,0.25063 h -2.542481 z"
       inkscape:label="letters" /></g></svg>
